# xmcd
#
# Track frame offsets:
# 150
# 14557
# 25437
# 42758
# 64375
# 87449
# 104852
# 122808
# 136938
# 162023
#
# Disc length: 2564 seconds
#
#
# Revision: 0
# Processed by: cddbd v1.5.2PL0 Copyright (c) Steve Scherf et al.
# Submitted via: Nero 7, 11, 10, 0 
#
DISCID=8c0a020a
DTITLE=Rockin' Sidney - I'm Your Man
DYEAR=1985
DGENRE=Blues
TTITLE0=I'm Your Man
TTITLE1=Take My Money
TTITLE2=Live With The Blues
TTITLE3=Honey Why
TTITLE4=Blues In June
TTITLE5=No Blues At All
TTITLE6=Just Jammin'
TTITLE7=Hotstepper's Dance Zydeco
TTITLE8=Take Me To The Zydeco - Joy To The South
TTITLE9=Oo Poo Pa Doo
EXTD=
EXTT0=I'm Your Man
EXTT1=Take My Money
EXTT2=Live With The Blues
EXTT3=Honey Why
EXTT4=Blues In June
EXTT5=No Blues At All
EXTT6=Just Jammin'
EXTT7=Hotstepper's Dance Zydeco
EXTT8=Take Me To The Zydeco - Joy To The South
EXTT9=Oo Poo Pa Doo
PLAYORDER=
